<svg id="Layer_1" data-name="Layer 1" xmlns="http://www.w3.org/2000/svg" xmlns:xlink="http://www.w3.org/1999/xlink" viewBox="0 0 58.07 45.99"><defs><style>.cls-1,.cls-11,.cls-9{fill:none;}.cls-2{fill:url(#linear-gradient);}.cls-3{fill:url(#linear-gradient-2);}.cls-4{fill:url(#linear-gradient-3);}.cls-5{fill:url(#linear-gradient-4);}.cls-6{fill:url(#linear-gradient-5);}.cls-7{fill:url(#linear-gradient-6);}.cls-8{fill:blue;}.cls-9{stroke:blue;}.cls-11,.cls-9{stroke-miterlimit:10;stroke-width:3px;}.cls-10{opacity:0.6;fill:url(#Fade_to_Black);}.cls-11{stroke:url(#Blazer);}.cls-12{fill:url(#Blazer-3);}.cls-13{fill:url(#Fade_to_Black-2);}</style><linearGradient id="linear-gradient" x1="-7896.11" y1="-22670.2" x2="-7896.11" y2="-22559.57" gradientTransform="matrix(1, 0, 0, -1, 8064.59, -22503.3)" gradientUnits="userSpaceOnUse"><stop offset="0.18" stop-color="#faa61a"/><stop offset="1" stop-color="#ffc20e"/></linearGradient><linearGradient id="linear-gradient-2" x1="-7975.55" y1="-22752.74" x2="-7975.55" y2="-22636.74" gradientTransform="matrix(1, 0, 0, -1, 8064.59, -22503.3)" gradientUnits="userSpaceOnUse"><stop offset="0.18" stop-color="#fd0"/><stop offset="1" stop-color="#ffc20e"/></linearGradient><linearGradient id="linear-gradient-3" x1="-8052.3" y1="-22670.2" x2="-8052.3" y2="-22559.57" xlink:href="#linear-gradient"/><linearGradient id="linear-gradient-4" x1="-7896.11" y1="-22520.08" x2="-7896.11" y2="-22409.45" xlink:href="#linear-gradient"/><linearGradient id="linear-gradient-5" x1="-7975.55" y1="-22602.62" x2="-7975.55" y2="-22486.62" xlink:href="#linear-gradient-2"/><linearGradient id="linear-gradient-6" x1="-8052.3" y1="-22520.08" x2="-8052.3" y2="-22409.45" xlink:href="#linear-gradient"/><linearGradient id="Fade_to_Black" x1="8.02" y1="19.42" x2="58.07" y2="19.42" gradientUnits="userSpaceOnUse"><stop offset="0" stop-color="#231f20"/><stop offset="0.06" stop-color="#231f20" stop-opacity="0.86"/><stop offset="0.33" stop-color="#231f20" stop-opacity="0.38"/><stop offset="0.63" stop-color="#231f20" stop-opacity="0.09"/><stop offset="1" stop-color="#231f20" stop-opacity="0"/></linearGradient><pattern id="Blazer" data-name="Blazer" width="156.19" height="150.12" patternUnits="userSpaceOnUse" viewBox="0 0 156.19 150.12"><rect class="cls-1" width="156.19" height="150.12"/><path class="cls-2" d="M209.14,87.85c-4.34,9.42,1.16,18,1.16,28.15,0,6.85-5.19,13.73-12.56,13.73-11.79,0-13.55-14.83-7-17.83,5.8-2.65,10.75,3.34,10.24,10.31,8.52-12.86.23-25-8.85-34.36-8.78-9-10-18.09-4.65-23C180.59,68,174.1,75.31,179,90.25c3.49,10.62,1.13,19.08-5.62,19.08-3.51,0-7.42-4.64-7-9.45-3.5,7.51-4.19,18.46,1.16,29.2,0,0-10.7-9.45-8.15-27.49s18.95-32.09,23.35-48.74-6.29-30.28-14-33.93c7.79,13.1-3.41,22.24-17,38.53-10.68,12.84-8.92,23.32-7.29,30.19-8-7.41-7.85-18.7-5.35-25.13,0,0-10.95,7.86-9.6,20.78,1.23,11.8,8,14.82,11.69,24.06,3.44,8.56,1.07,15.88-4.42,16.79s-9.65-2.72-10.23-9.66c-.53-6.21,3.26-12.83-.24-18.9,1.33,8.75-14.63,14.6-13,29.42,1.07,9.89,9.68,17,17.12,19.87-.9-3-.38-5.73,1.63-7.11,3-2.07,8.33-.21,11.82,4.14s3.85,9.57.82,11.64c-2.85,1.94-8.27,1-11.82-2.72,2.18,15.35,16.7,27.09,31.16,31.73-3.81-13,.52-24.71,13.26-34.36-4.24,9-2.91,20.61,5.12,25.76-2.61-21.31,39-22.39,41.33-47.66C225.16,110.45,207.64,99.65,209.14,87.85Z"/><path class="cls-3" d="M107.15,115.17C97,142.42,53.45,150.54,49,170.56c2.51-4,10.2-6.36,12.83-1.8,1.91,3.3-.12,7.9-5.09,10.57-4.56,2.46-9.79,1.49-12-2-2.76-4.51-.6-10.93,3.1-15.3-7.49,2-18.71,10.88-16.63,28.57S46,220,40.62,234.89c16.52-15.64,2.42-34,23-46.11-11.15,13-15.74,40.44,1.33,62.76-3.81-13.28-3.74-21.62-1.33-30.59,0,17.47,5,22.46,7.84,39.25,3.1,18.22-.25,30-8.66,36.64,11.08-4,26.25-13.88,25.75-31.42-.3-10.48-2.46-14-4.1-22.83-1.77-9.48,1.6-12.87,5-13.35,4.53-.63,8.42,4.31,8.7,11.73.52,13.71-6.34,20.77-2.65,36.21,1.91-15.25,16.58-21.58,17.22-36.89.83-19.81-26.59-36.59-14.79-59.83-.79,11.8,2.12,19,8.19,25.19-2.8-5.65-2.3-13.47,3.32-14.17,3.32-.41,7.6,3.08,4.89,13.8-3.14,12.41-3.6,28.26,9.86,41.8-10-26.93,20-38.24,10.45-62.8,4.91,3.95,8.07,14.09,3.08,24.39,0,0,12.28-10.73,8.65-24.43-4.46-16.78-28.15-26.07-34.28-41.8a44.7,44.7,0,0,0,4.21,18C104.22,149.67,106,125.42,107.15,115.17Z"/><path class="cls-4" d="M53,87.85c-4.34,9.42,1.16,18,1.16,28.15,0,6.85-5.19,13.73-12.56,13.73-11.79,0-13.55-14.83-7-17.83,5.8-2.65,10.75,3.34,10.24,10.31,8.52-12.86.23-25-8.85-34.36-8.78-9-9.95-18.09-4.65-23C24.4,68,17.91,75.31,22.81,90.25c3.49,10.62,1.13,19.08-5.62,19.08-3.51,0-7.42-4.64-7-9.45-3.49,7.51-4.19,18.46,1.16,29.2,0,0-10.7-9.45-8.14-27.49S22.1,69.5,26.5,52.85s-6.29-30.28-14-33.93c7.78,13.1-3.42,22.24-17,38.53-10.68,12.84-8.92,23.32-7.29,30.19-8-7.41-7.85-18.7-5.35-25.13,0,0-10.95,7.86-9.6,20.78,1.23,11.8,8,14.82,11.69,24.06,3.44,8.56,1.08,15.88-4.41,16.79s-9.66-2.72-10.24-9.66c-.52-6.21,3.26-12.83-.24-18.9,1.33,8.75-14.63,14.6-13,29.42,1.07,9.89,9.68,17,17.12,19.87-.9-3-.38-5.73,1.63-7.11,3-2.07,8.33-.21,11.82,4.14s3.85,9.57.82,11.64c-2.85,1.94-8.27,1-11.82-2.72,2.18,15.35,16.7,27.09,31.16,31.73-3.81-13,.52-24.71,13.26-34.36-4.24,9-2.91,20.61,5.12,25.76-2.61-21.31,39-22.39,41.33-47.66C69,110.45,51.45,99.65,53,87.85Z"/><path class="cls-5" d="M209.14-62.27c-4.34,9.43,1.16,18,1.16,28.16,0,6.84-5.19,13.72-12.56,13.72-11.79,0-13.55-14.83-7-17.83,5.8-2.65,10.75,3.35,10.24,10.31,8.52-12.86.23-25-8.85-34.36-8.78-9-10-18.09-4.65-23-6.91,3.11-13.4,10.43-8.5,25.37,3.49,10.62,1.13,19.08-5.62,19.08-3.51,0-7.42-4.64-7-9.45-3.5,7.51-4.19,18.47,1.16,29.2,0,0-10.7-9.45-8.15-27.48s18.95-32.1,23.35-48.75-6.29-30.28-14-33.93c7.79,13.1-3.41,22.24-17,38.53-10.68,12.84-8.92,23.32-7.29,30.19-8-7.41-7.85-18.7-5.35-25.12,0,0-10.95,7.85-9.6,20.77,1.23,11.8,8,14.83,11.69,24.06,3.44,8.56,1.07,15.88-4.42,16.79s-9.65-2.71-10.23-9.66c-.53-6.21,3.26-12.83-.24-18.9,1.33,8.75-14.63,14.61-13,29.42,1.07,9.89,9.68,17,17.12,19.87-.9-3-.38-5.73,1.63-7.11,3-2.07,8.33-.21,11.82,4.15s3.85,9.57.82,11.64c-2.85,1.93-8.27,1-11.82-2.73C135,16.06,149.54,27.79,164,32.43c-3.81-13,.52-24.71,13.26-34.35-4.24,9-2.91,20.6,5.12,25.75-2.61-21.31,39-22.38,41.33-47.66C225.16-39.67,207.64-50.47,209.14-62.27Z"/><path class="cls-6" d="M107.15-34.95C97-7.7,53.45.42,49,20.44c2.51-4,10.2-6.36,12.83-1.8,1.91,3.3-.12,7.9-5.09,10.57-4.56,2.46-9.79,1.49-12-2-2.76-4.51-.6-10.93,3.1-15.3-7.49,2-18.71,10.88-16.63,28.57S46,69.86,40.62,84.78c16.52-15.65,2.42-34,23-46.12C52.48,51.64,47.89,79.1,65,101.42c-3.81-13.28-3.74-21.62-1.33-30.59,0,17.47,5,22.46,7.84,39.25,3.1,18.22-.25,30-8.66,36.64,11.08-4,26.25-13.88,25.75-31.42-.3-10.48-2.46-14-4.1-22.83-1.77-9.48,1.6-12.87,5-13.34,4.53-.64,8.42,4.3,8.7,11.72.52,13.71-6.34,20.78-2.65,36.22,1.91-15.26,16.58-21.58,17.22-36.9.83-19.8-26.59-36.59-14.79-59.83-.79,11.8,2.12,19,8.19,25.19-2.8-5.65-2.3-13.47,3.32-14.17,3.32-.41,7.6,3.08,4.89,13.8-3.14,12.41-3.6,28.26,9.86,41.8-10-26.93,20-38.24,10.45-62.8,4.91,4,8.07,14.09,3.08,24.39,0,0,12.28-10.73,8.65-24.43-4.46-16.78-28.15-26.07-34.28-41.8a44.66,44.66,0,0,0,4.21,18C104.22-.45,106-24.7,107.15-34.95Z"/><path class="cls-7" d="M53-62.27c-4.34,9.43,1.16,18,1.16,28.16,0,6.84-5.19,13.72-12.56,13.72-11.79,0-13.55-14.83-7-17.83,5.8-2.65,10.75,3.35,10.24,10.31,8.52-12.86.23-25-8.85-34.36-8.78-9-9.95-18.09-4.65-23-6.91,3.11-13.4,10.43-8.5,25.37,3.49,10.62,1.13,19.08-5.62,19.08-3.51,0-7.42-4.64-7-9.45C6.65-42.73,6-31.77,11.3-21c0,0-10.7-9.45-8.14-27.48S22.1-80.62,26.5-97.27s-6.29-30.28-14-33.93c7.78,13.1-3.42,22.24-17,38.53-10.68,12.84-8.92,23.32-7.29,30.19-8-7.41-7.85-18.7-5.35-25.12,0,0-10.95,7.85-9.6,20.77C-25.46-55-18.71-52-15-42.77c3.44,8.56,1.08,15.88-4.41,16.79s-9.66-2.71-10.24-9.66c-.52-6.21,3.26-12.83-.24-18.9,1.33,8.75-14.63,14.61-13,29.42,1.07,9.89,9.68,17,17.12,19.87-.9-3-.38-5.73,1.63-7.11,3-2.07,8.33-.21,11.82,4.15s3.85,9.57.82,11.64c-2.85,1.93-8.27,1-11.82-2.73,2.18,15.36,16.7,27.09,31.16,31.73C4,19.41,8.33,7.72,21.07-1.92c-4.24,9-2.91,20.6,5.12,25.75-2.61-21.31,39-22.38,41.33-47.66C69-39.67,51.45-50.47,53-62.27Z"/></pattern><pattern id="Blazer-3" data-name="Blazer" x="-7170.37" y="-7178.53" width="156.19" height="150.12" patternUnits="userSpaceOnUse" viewBox="0 0 156.19 150.12"><rect class="cls-1" width="156.19" height="150.12"/><path class="cls-2" d="M209.14,87.85c-4.34,9.42,1.16,18,1.16,28.15,0,6.85-5.19,13.73-12.56,13.73-11.79,0-13.55-14.83-7-17.83,5.8-2.65,10.75,3.34,10.24,10.31,8.52-12.86.23-25-8.85-34.36-8.78-9-10-18.09-4.65-23C180.59,68,174.1,75.31,179,90.25c3.49,10.62,1.13,19.08-5.62,19.08-3.51,0-7.42-4.64-7-9.45-3.5,7.51-4.19,18.46,1.16,29.2,0,0-10.7-9.45-8.15-27.49s18.95-32.09,23.35-48.74-6.29-30.28-14-33.93c7.79,13.1-3.41,22.24-17,38.53-10.68,12.84-8.92,23.32-7.29,30.19-8-7.41-7.85-18.7-5.35-25.13,0,0-10.95,7.86-9.6,20.78,1.23,11.8,8,14.82,11.69,24.06,3.44,8.56,1.07,15.88-4.42,16.79s-9.65-2.72-10.23-9.66c-.53-6.21,3.26-12.83-.24-18.9,1.33,8.75-14.63,14.6-13,29.42,1.07,9.89,9.68,17,17.12,19.87-.9-3-.38-5.73,1.63-7.11,3-2.07,8.33-.21,11.82,4.14s3.85,9.57.82,11.64c-2.85,1.94-8.27,1-11.82-2.72,2.18,15.35,16.7,27.09,31.16,31.73-3.81-13,.52-24.71,13.26-34.36-4.24,9-2.91,20.61,5.12,25.76-2.61-21.31,39-22.39,41.33-47.66C225.16,110.45,207.64,99.65,209.14,87.85Z"/><path class="cls-3" d="M107.15,115.17C97,142.42,53.45,150.54,49,170.56c2.51-4,10.2-6.36,12.83-1.8,1.91,3.3-.12,7.9-5.09,10.57-4.56,2.46-9.79,1.49-12-2-2.76-4.51-.6-10.93,3.1-15.3-7.49,2-18.71,10.88-16.63,28.57S46,220,40.62,234.89c16.52-15.64,2.42-34,23-46.11-11.15,13-15.74,40.44,1.33,62.76-3.81-13.28-3.74-21.62-1.33-30.59,0,17.47,5,22.46,7.84,39.25,3.1,18.22-.25,30-8.66,36.64,11.08-4,26.25-13.88,25.75-31.42-.3-10.48-2.46-14-4.1-22.83-1.77-9.48,1.6-12.87,5-13.35,4.53-.63,8.42,4.31,8.7,11.73.52,13.71-6.34,20.77-2.65,36.21,1.91-15.25,16.58-21.58,17.22-36.89.83-19.81-26.59-36.59-14.79-59.83-.79,11.8,2.12,19,8.19,25.19-2.8-5.65-2.3-13.47,3.32-14.17,3.32-.41,7.6,3.08,4.89,13.8-3.14,12.41-3.6,28.26,9.86,41.8-10-26.93,20-38.24,10.45-62.8,4.91,3.95,8.07,14.09,3.08,24.39,0,0,12.28-10.73,8.65-24.43-4.46-16.78-28.15-26.07-34.28-41.8a44.7,44.7,0,0,0,4.21,18C104.22,149.67,106,125.42,107.15,115.17Z"/><path class="cls-4" d="M53,87.85c-4.34,9.42,1.16,18,1.16,28.15,0,6.85-5.19,13.73-12.56,13.73-11.79,0-13.55-14.83-7-17.83,5.8-2.65,10.75,3.34,10.24,10.31,8.52-12.86.23-25-8.85-34.36-8.78-9-9.95-18.09-4.65-23C24.4,68,17.91,75.31,22.81,90.25c3.49,10.62,1.13,19.08-5.62,19.08-3.51,0-7.42-4.64-7-9.45-3.49,7.51-4.19,18.46,1.16,29.2,0,0-10.7-9.45-8.14-27.49S22.1,69.5,26.5,52.85s-6.29-30.28-14-33.93c7.78,13.1-3.42,22.24-17,38.53-10.68,12.84-8.92,23.32-7.29,30.19-8-7.41-7.85-18.7-5.35-25.13,0,0-10.95,7.86-9.6,20.78,1.23,11.8,8,14.82,11.69,24.06,3.44,8.56,1.08,15.88-4.41,16.79s-9.66-2.72-10.24-9.66c-.52-6.21,3.26-12.83-.24-18.9,1.33,8.75-14.63,14.6-13,29.42,1.07,9.89,9.68,17,17.12,19.87-.9-3-.38-5.73,1.63-7.11,3-2.07,8.33-.21,11.82,4.14s3.85,9.57.82,11.64c-2.85,1.94-8.27,1-11.82-2.72,2.18,15.35,16.7,27.09,31.16,31.73-3.81-13,.52-24.71,13.26-34.36-4.24,9-2.91,20.61,5.12,25.76-2.61-21.31,39-22.39,41.33-47.66C69,110.45,51.45,99.65,53,87.85Z"/><path class="cls-5" d="M209.14-62.27c-4.34,9.43,1.16,18,1.16,28.16,0,6.84-5.19,13.72-12.56,13.72-11.79,0-13.55-14.83-7-17.83,5.8-2.65,10.75,3.35,10.24,10.31,8.52-12.86.23-25-8.85-34.36-8.78-9-10-18.09-4.65-23-6.91,3.11-13.4,10.43-8.5,25.37,3.49,10.62,1.13,19.08-5.62,19.08-3.51,0-7.42-4.64-7-9.45-3.5,7.51-4.19,18.47,1.16,29.2,0,0-10.7-9.45-8.15-27.48s18.95-32.1,23.35-48.75-6.29-30.28-14-33.93c7.79,13.1-3.41,22.24-17,38.53-10.68,12.84-8.92,23.32-7.29,30.19-8-7.41-7.85-18.7-5.35-25.12,0,0-10.95,7.85-9.6,20.77,1.23,11.8,8,14.83,11.69,24.06,3.44,8.56,1.07,15.88-4.42,16.79s-9.65-2.71-10.23-9.66c-.53-6.21,3.26-12.83-.24-18.9,1.33,8.75-14.63,14.61-13,29.42,1.07,9.89,9.68,17,17.12,19.87-.9-3-.38-5.73,1.63-7.11,3-2.07,8.33-.21,11.82,4.15s3.85,9.57.82,11.64c-2.85,1.93-8.27,1-11.82-2.73C135,16.06,149.54,27.79,164,32.43c-3.81-13,.52-24.71,13.26-34.35-4.24,9-2.91,20.6,5.12,25.75-2.61-21.31,39-22.38,41.33-47.66C225.16-39.67,207.64-50.47,209.14-62.27Z"/><path class="cls-6" d="M107.15-34.95C97-7.7,53.45.42,49,20.44c2.51-4,10.2-6.36,12.83-1.8,1.91,3.3-.12,7.9-5.09,10.57-4.56,2.46-9.79,1.49-12-2-2.76-4.51-.6-10.93,3.1-15.3-7.49,2-18.71,10.88-16.63,28.57S46,69.86,40.62,84.78c16.52-15.65,2.42-34,23-46.12C52.48,51.64,47.89,79.1,65,101.42c-3.81-13.28-3.74-21.62-1.33-30.59,0,17.47,5,22.46,7.84,39.25,3.1,18.22-.25,30-8.66,36.64,11.08-4,26.25-13.88,25.75-31.42-.3-10.48-2.46-14-4.1-22.83-1.77-9.48,1.6-12.87,5-13.34,4.53-.64,8.42,4.3,8.7,11.72.52,13.71-6.34,20.78-2.65,36.22,1.91-15.26,16.58-21.58,17.22-36.9.83-19.8-26.59-36.59-14.79-59.83-.79,11.8,2.12,19,8.19,25.19-2.8-5.65-2.3-13.47,3.32-14.17,3.32-.41,7.6,3.08,4.89,13.8-3.14,12.41-3.6,28.26,9.86,41.8-10-26.93,20-38.24,10.45-62.8,4.91,4,8.07,14.09,3.08,24.39,0,0,12.28-10.73,8.65-24.43-4.46-16.78-28.15-26.07-34.28-41.8a44.66,44.66,0,0,0,4.21,18C104.22-.45,106-24.7,107.15-34.95Z"/><path class="cls-7" d="M53-62.27c-4.34,9.43,1.16,18,1.16,28.16,0,6.84-5.19,13.72-12.56,13.72-11.79,0-13.55-14.83-7-17.83,5.8-2.65,10.75,3.35,10.24,10.31,8.52-12.86.23-25-8.85-34.36-8.78-9-9.95-18.09-4.65-23-6.91,3.11-13.4,10.43-8.5,25.37,3.49,10.62,1.13,19.08-5.62,19.08-3.51,0-7.42-4.64-7-9.45C6.65-42.73,6-31.77,11.3-21c0,0-10.7-9.45-8.14-27.48S22.1-80.62,26.5-97.27s-6.29-30.28-14-33.93c7.78,13.1-3.42,22.24-17,38.53-10.68,12.84-8.92,23.32-7.29,30.19-8-7.41-7.85-18.7-5.35-25.12,0,0-10.95,7.85-9.6,20.77C-25.46-55-18.71-52-15-42.77c3.44,8.56,1.08,15.88-4.41,16.79s-9.66-2.71-10.24-9.66c-.52-6.21,3.26-12.83-.24-18.9,1.33,8.75-14.63,14.61-13,29.42,1.07,9.89,9.68,17,17.12,19.87-.9-3-.38-5.73,1.63-7.11,3-2.07,8.33-.21,11.82,4.15s3.85,9.57.82,11.64c-2.85,1.93-8.27,1-11.82-2.73,2.18,15.36,16.7,27.09,31.16,31.73C4,19.41,8.33,7.72,21.07-1.92c-4.24,9-2.91,20.6,5.12,25.75-2.61-21.31,39-22.38,41.33-47.66C69-39.67,51.45-50.47,53-62.27Z"/></pattern><linearGradient id="Fade_to_Black-2" x1="44.03" y1="43.7" x2="48.62" y2="43.7" xlink:href="#Fade_to_Black"/></defs><polygon class="cls-8" points="48.14 33.55 19.48 33.4 6.94 5.59 58.07 5.28 48.14 33.55"/><path class="cls-9" d="M7170.68,7180l4.69,1,13.78,29.69-1.76,1.62c-1.31,1.73-.29,3.58,2,3.58H7220" transform="translate(-7170.37 -7178.53)"/><polygon class="cls-10" points="48.14 33.55 21.02 33.55 8.02 5.59 58.07 5.28 48.14 33.55"/><path class="cls-11" d="M7170.68,7180l4.69,1,13.78,29.69-1.76,1.62c-1.31,1.73-.29,3.58,2,3.58H7220" transform="translate(-7170.37 -7178.53)"/><circle class="cls-8" cx="20.79" cy="43.7" r="2.3"/><circle class="cls-12" cx="20.79" cy="43.7" r="2.3"/><circle class="cls-8" cx="46.33" cy="43.7" r="2.3"/><circle class="cls-13" cx="46.33" cy="43.7" r="2.3"/></svg>